<svg width="16" height="16" viewBox="0 0 16 16" fill="none" xmlns="http://www.w3.org/2000/svg">
<g id="GitHub Icons">
<path id="Vector" d="M7.33342 3.66666C7.33342 4.84215 6.46418 5.81462 5.33341 5.97637V7.66666H9.50008C10.3285 7.66666 11.0001 6.99506 11.0001 6.16666V5.90337C10.0363 5.61652 9.33342 4.72367 9.33342 3.66666C9.33342 2.378 10.3781 1.33333 11.6667 1.33333C12.9554 1.33333 14.0001 2.378 14.0001 3.66666C14.0001 4.84215 13.1308 5.81462 12.0001 5.97637V6.16666C12.0001 7.5474 10.8808 8.66666 9.50008 8.66666H5.33341V10.0236C6.46418 10.1854 7.33342 11.1579 7.33342 12.3333C7.33342 13.622 6.28875 14.6667 5.00008 14.6667C3.71141 14.6667 2.66675 13.622 2.66675 12.3333C2.66675 11.2763 3.36959 10.3835 4.33341 10.0966V5.90337C3.36959 5.61652 2.66675 4.72367 2.66675 3.66666C2.66675 2.378 3.71141 1.33333 5.00008 1.33333C6.28875 1.33333 7.33342 2.378 7.33342 3.66666ZM5.00008 4.99999C5.73646 4.99999 6.33341 4.40304 6.33341 3.66666C6.33341 2.93028 5.73646 2.33333 5.00008 2.33333C4.2637 2.33333 3.66675 2.93028 3.66675 3.66666C3.66675 4.40304 4.2637 4.99999 5.00008 4.99999ZM11.6667 4.99999C12.4031 4.99999 13.0001 4.40304 13.0001 3.66666C13.0001 2.93028 12.4031 2.33333 11.6667 2.33333C10.9303 2.33333 10.3334 2.93028 10.3334 3.66666C10.3334 4.40304 10.9303 4.99999 11.6667 4.99999ZM6.33341 12.3333C6.33341 11.5969 5.73646 11 5.00008 11C4.2637 11 3.66675 11.5969 3.66675 12.3333C3.66675 13.0697 4.2637 13.6667 5.00008 13.6667C5.73646 13.6667 6.33341 13.0697 6.33341 12.3333Z" fill="#707070"/>
</g>
</svg>
