<svg width="28" height="28" viewBox="0 0 28 28" fill="none" xmlns="http://www.w3.org/2000/svg">
<rect width="28" height="28" fill="white"/>
<path d="M13.6348 1.4502C14.1453 1.45229 14.6562 1.47442 15.165 1.51758H15.1689L15.8584 1.5957C16.5753 1.69241 17.3621 1.84676 18.123 2.07812C19.1292 2.38415 20.1377 2.83991 20.873 3.52148C21.3803 3.9921 21.7022 4.60398 21.7041 5.34961C21.7067 6.6168 21.707 7.88877 21.707 9.15625L21.708 21.4482L21.707 21.7979C21.7058 21.8635 21.704 21.9347 21.7002 22.002V22.0039L21.6826 22.1953V22.1973C21.6446 22.4799 21.5226 22.756 21.3916 22.9805C21.258 23.2092 21.0919 23.427 20.9219 23.5938C20.0869 24.4119 18.8726 24.9379 17.6611 25.2666C16.5743 25.5614 15.4394 25.7061 14.4746 25.7461L14.4775 25.749L14.1318 25.7607C13.4782 25.7825 12.8235 25.767 12.1719 25.7158L11.5215 25.6533H11.5098C9.91256 25.4635 7.70952 24.9298 6.37695 23.7285C5.92273 23.3188 5.46789 22.6842 5.4541 21.9248L5.45117 20.5664L5.45215 5.77637L5.4502 5.41016C5.45123 5.26599 5.45728 5.10335 5.47656 4.97266C5.60794 4.09092 6.31695 3.40451 6.91016 3.03027C8.71869 1.89073 10.9761 1.54621 12.9639 1.46191C13.0169 1.45848 13.0713 1.45573 13.125 1.45508L13.6348 1.4502ZM9.8418 22.084L9.83203 22.0967L9.82129 22.1074L9.81543 22.1084C9.5048 22.4165 9.19509 22.7266 8.8877 23.0371L8.82031 23.1074C8.78619 23.1422 8.73278 23.197 8.67285 23.2578C10.1567 23.8966 11.9587 24.1586 13.5947 24.1553C15.2469 24.1462 17.0074 23.9074 18.4873 23.2539C17.8153 22.5922 17.1443 21.929 16.4766 21.2627L14.4287 19.2021C14.366 19.1393 14.056 18.8238 13.7812 18.5479C13.7115 18.4778 13.6418 18.4091 13.5762 18.3447L9.8418 22.084ZM12.5635 12.5361L7.68555 17.4189L7.13672 17.9648C7.11688 17.985 7.09779 18.0066 7.07715 18.0283C7.0713 18.0345 7.06492 18.0407 7.05957 18.0459C7.06319 18.425 7.06601 18.8059 7.06738 19.1855V21.3154C7.06671 21.7135 7.06865 21.8852 7.10938 22.0322C7.13186 22.113 7.17633 22.2031 7.29199 22.3379C7.74672 21.8881 8.20229 21.4375 8.65137 20.9834L11.1592 18.4756L12.4355 17.1953C12.5292 17.1014 12.6244 17.0058 12.7197 16.9092C12.8145 16.813 12.9114 16.7138 13.0078 16.6172L13.0088 16.6162C13.1986 16.4277 13.4398 16.3943 13.5391 16.3848L13.6084 16.3779L13.6348 16.375L13.6436 16.377L13.6602 16.3809L13.7295 16.3984C13.9693 16.461 14.1467 16.6142 14.248 16.7109C14.3039 16.7643 14.3556 16.8193 14.3955 16.8623C14.439 16.9092 14.4673 16.941 14.4941 16.9678L14.4951 16.9688L15.3184 17.7959L17.6309 20.1094L19.3193 21.793L19.8633 22.3389C19.949 22.2391 20.0151 22.1473 20.0498 22.0615C20.0656 22.0215 20.0831 21.9423 20.0898 21.8115C20.0966 21.6785 20.0909 21.5567 20.0908 21.4004L20.0879 18.0381C19.6827 17.6227 19.2577 17.2103 18.835 16.7861L15.3184 13.2646L13.793 11.7402C13.7599 11.7072 13.6666 11.6139 13.5732 11.5195L12.5635 12.5361ZM20.0869 7.61426C19.4454 8.0134 18.694 8.31158 17.9424 8.52539C16.7584 8.86211 15.5072 9.02356 14.54 9.06543C12.2973 9.16222 9.55483 8.92515 7.43652 7.83203C7.31358 7.76856 7.19015 7.69487 7.06738 7.61719V15.7402C7.21102 15.5989 7.35146 15.4612 7.4834 15.3291L12.6768 10.1299C12.7708 10.0352 12.8853 9.91757 12.9834 9.82031L12.9854 9.81836C13.0852 9.72043 13.2111 9.65229 13.3193 9.61328C13.3783 9.59212 13.4534 9.57169 13.5361 9.56445C13.6142 9.55772 13.7394 9.55941 13.8721 9.61816C13.9812 9.66696 14.0763 9.74128 14.1348 9.79004C14.2015 9.84568 14.2676 9.90878 14.3242 9.96484C14.3818 10.0219 14.4372 10.0794 14.4824 10.127C14.5302 10.1771 14.5623 10.2106 14.584 10.2324L15.4062 11.0557C15.9334 11.5824 16.4596 12.1125 16.9844 12.6406L18.5615 14.2129L20.0889 15.7402V7.7373L20.0869 7.61426ZM13.3594 3.06934L12.96 3.08008L12.9609 3.08105C11.3528 3.16056 9.83418 3.39896 8.40918 4.04688C7.87454 4.29017 7.3897 4.63016 7.17773 4.96973C7.08221 5.12301 7.05926 5.24783 7.07812 5.3584C7.09831 5.47498 7.17934 5.6607 7.44824 5.90039C7.82659 6.23745 8.33014 6.48597 8.87109 6.69922C10.5262 7.32826 12.4178 7.50933 14.2334 7.45898L14.9678 7.40918L15.541 7.35059C16.1208 7.28171 16.7158 7.17948 17.2891 7.0293C18.31 6.76179 19.2183 6.35234 19.8574 5.74219L19.9062 5.6875C19.9488 5.63572 19.9932 5.56862 20.0264 5.49414C20.0725 5.39012 20.0839 5.31059 20.082 5.27344L20.0811 5.26562L20.0801 5.25977L20.0811 5.25586L20.0713 5.19336C20.0557 5.12611 20.0222 5.04471 19.9707 4.95898C19.9017 4.84439 19.8073 4.73198 19.7041 4.64648C18.9558 4.0273 17.8111 3.60272 16.5469 3.35059C15.4703 3.13597 14.3516 3.05414 13.4082 3.06738L13.3594 3.06934Z" fill="#0E61B2"/>
</svg>
