<svg width="28" height="28" viewBox="0 0 28 28" fill="none" xmlns="http://www.w3.org/2000/svg">
<rect width="28" height="28" fill="white"/>
<path d="M19.5458 2.00129C21.4685 1.96953 23.6657 2.51987 24.7592 4.23197C25.8486 5.93735 25.5386 9.17867 25.2108 11.0953C24.8163 13.4013 23.8853 16.3628 21.8637 17.7137C22.1629 17.6846 22.4612 17.6471 22.7582 17.6013C22.9608 17.5693 23.5656 17.4194 23.7108 17.5693C23.7633 17.6933 23.6577 17.8876 23.5813 17.9822C22.8312 18.9114 21.2927 19.3854 20.1389 19.2417C20.124 21.0481 20.2417 22.8019 18.9088 24.2728C18.2153 25.0381 17.2466 25.4972 16.2151 25.5494C15.1127 25.5991 14.0369 25.2022 13.2311 24.4483C12.1409 23.4435 12.0966 22.4767 12.0425 21.1089C11.9784 20.3766 11.9459 19.7096 11.9724 18.9731C10.6758 19.722 7.59417 20.5568 6.23267 19.8643C3.72819 18.5902 2.97803 14.3677 2.48637 11.8813C1.85688 8.69792 1.1723 3.69983 5.08184 2.37211C7.4078 1.58221 10.7784 2.1513 12.9093 3.26286C13.5268 3.02479 14.905 2.86516 15.5522 2.92145C16.8901 2.0919 18.0256 2.03394 19.5458 2.00129ZM10.1836 8.35167C11.0892 8.30203 11.8304 8.31501 12.5543 8.94652C13.4842 9.75788 13.6955 11.2607 13.756 12.4392C13.8018 13.332 13.7596 14.7429 13.3985 15.567C13.2735 15.8522 13.0217 16.1948 12.8694 16.5126C13.1585 16.6236 13.5768 16.8951 13.7121 17.1858C13.7874 17.3473 13.7817 17.5994 13.7812 17.7783C13.7775 18.9361 13.7629 20.0868 13.8732 21.2413C13.9101 21.6281 13.8674 22.2331 14.035 22.5757C14.3669 23.2541 15.152 23.7307 15.9019 23.7525C16.1747 23.7605 16.3987 23.7267 16.6703 23.664C17.3776 23.3297 17.8106 22.9578 18.0838 22.1873C18.4368 21.1918 18.3204 19.9956 18.3406 18.9558C18.3402 18.3902 18.3716 17.8279 18.412 17.2638C18.4382 16.899 18.4331 16.508 18.579 16.1668C18.71 15.8604 19.047 15.8118 19.2981 15.6541C19.0659 15.4404 18.2902 14.7431 18.1274 14.5112C17.558 13.6996 17.2168 12.2674 17.1712 11.2907C17.137 10.5558 17.263 9.53597 17.7783 8.97671C18.17 8.5516 18.8603 8.4935 19.4014 8.41736C19.5703 8.39357 19.8806 8.34438 20.0439 8.34014C20.0754 8.33918 20.1069 8.33885 20.1384 8.33915C20.125 7.76355 19.9098 7.11893 19.5858 6.641C18.5244 5.07544 16.6878 4.67922 14.8949 4.7364C14.8662 4.73739 14.8377 4.73932 14.8092 4.74217C13.1174 4.85264 10.6635 5.95673 10.2649 7.85275C10.2308 8.01504 10.2174 8.18854 10.1836 8.35167ZM9.66434 17.9702C10.0639 17.8683 10.7395 17.6404 11.074 17.4085C9.8172 17.0631 8.5921 15.5323 8.40444 14.2532C8.33334 13.7685 8.36526 13.1504 8.37214 12.6513L8.39359 10.618C8.40073 9.79518 8.33733 8.84704 8.3839 8.05343C8.40116 7.77086 8.4476 7.49085 8.52253 7.21785C8.87566 5.93393 9.49694 5.06942 10.646 4.39391C9.96629 3.95333 7.94933 3.72786 7.12345 3.82808C6.22186 3.87726 5.24686 4.05941 4.61867 4.76372C3.81792 5.66153 3.72906 7.16215 3.80081 8.308C3.94267 10.5743 4.96347 16.5263 6.62638 17.9758C7.03052 18.3281 7.45305 18.3314 7.96124 18.2943C8.53946 18.2518 9.1109 18.1431 9.66434 17.9702ZM20.0907 10.3836C19.8161 10.8656 19.5283 11.0474 18.9702 11.0707C19.0742 12.0474 19.1181 12.5158 19.5592 13.4109C19.7524 13.5995 19.9464 13.7947 20.153 13.9679C20.0894 12.8209 20.1717 11.6374 20.1344 10.4869C20.1331 10.4445 20.1193 10.4135 20.0907 10.3836ZM11.3341 15.5656C11.4265 15.4041 11.5175 15.2419 11.6071 15.0789C12.0083 14.379 11.9634 13.5777 11.9679 12.7918C11.9711 12.2392 11.8915 11.4414 11.7024 10.9166C11.0822 11.2061 10.5318 11.0345 10.2412 10.4074L10.1927 10.382C10.161 11.4239 10.1636 12.4801 10.1565 13.5233C10.1551 13.7333 10.1741 13.9705 10.227 14.1756C10.388 14.6758 10.8906 15.297 11.3341 15.5656ZM19.2384 3.79238L19.2527 3.80789C19.3792 3.94335 19.6363 4.14251 19.7889 4.25941C20.6953 4.9539 21.355 5.87349 21.7539 6.94104C21.9277 7.40628 21.9471 7.90693 21.9521 8.40113C21.9562 8.80164 21.9733 9.20858 21.965 9.60993C21.8184 11.279 22.0499 12.9761 21.847 14.635C21.8078 14.9714 21.6508 15.3099 21.5499 15.6229C21.8177 15.2889 22.0849 14.8846 22.2649 14.4967C23.2992 12.4546 23.7327 9.80536 23.7217 7.53153C23.7146 6.06296 23.5592 4.98305 22.1354 4.27297C21.0976 3.75538 20.3316 3.84763 19.2384 3.79238Z" fill="#336792"/>
</svg>
