<svg width="14" height="14" viewBox="0 0 14 14" fill="none" xmlns="http://www.w3.org/2000/svg">
<path d="M6.19178 1.0681C6.52192 0.399179 7.47578 0.399172 7.80592 1.0681L9.37792 4.25325L12.8929 4.76401C13.6311 4.87127 13.9259 5.77847 13.3917 6.29913L10.8482 8.7784L11.4487 12.2793C11.5747 13.0145 10.8031 13.5751 10.1428 13.228L6.99885 11.5751L3.85493 13.228C3.19467 13.5751 2.42298 13.0145 2.54908 12.2793L3.14952 8.7784L0.606025 6.29913C0.0718589 5.77847 0.366619 4.87127 1.10482 4.76401L4.61984 4.25325L6.19178 1.0681ZM6.99885 1.69236L5.49331 4.74295C5.36221 5.00859 5.1088 5.19269 4.81566 5.23529L1.44913 5.72447L3.88517 8.09906C4.09729 8.3058 4.19409 8.60367 4.14401 8.89567L3.56894 12.2486L6.58005 10.6655C6.84225 10.5277 7.15545 10.5277 7.41765 10.6655L10.4288 12.2486L9.85372 8.89567C9.80365 8.60367 9.90045 8.3058 10.1125 8.09906L12.5486 5.72447L9.18205 5.23529C8.88892 5.19269 8.63552 5.00859 8.50445 4.74295L6.99885 1.69236Z" fill="#999999"/>
</svg>
