<svg width="16" height="16" viewBox="0 0 16 16" fill="none" xmlns="http://www.w3.org/2000/svg">
<g id="GitHub Icons">
<path id="Vector" d="M7.19178 2.0681C7.52192 1.39918 8.47578 1.39917 8.80592 2.0681L10.3779 5.25325L13.8929 5.76401C14.6311 5.87127 14.9259 6.77847 14.3917 7.29913L11.8482 9.7784L12.4487 13.2793C12.5747 14.0145 11.8031 14.5751 11.1428 14.228L7.99885 12.5751L4.85493 14.228C4.19467 14.5751 3.42298 14.0145 3.54908 13.2793L4.14952 9.7784L1.60603 7.29913C1.07186 6.77847 1.36662 5.87127 2.10482 5.76401L5.61984 5.25325L7.19178 2.0681ZM7.99885 2.69236L6.49331 5.74295C6.36221 6.00859 6.1088 6.19269 5.81566 6.23529L2.44913 6.72447L4.88517 9.09906C5.09729 9.3058 5.19409 9.60367 5.14401 9.89567L4.56894 13.2486L7.58005 11.6655C7.84225 11.5277 8.15545 11.5277 8.41765 11.6655L11.4288 13.2486L10.8537 9.89567C10.8037 9.60367 10.9005 9.3058 11.1125 9.09906L13.5486 6.72447L10.1821 6.23529C9.88892 6.19269 9.63552 6.00859 9.50445 5.74295L7.99885 2.69236Z" fill="#707070"/>
</g>
</svg>
