<?xml version="1.0" encoding="iso-8859-1"?>
<!-- Uploaded to: SVG Repo, www.svgrepo.com, Generator: SVG Repo Mixer Tools -->
<svg version="1.1" id="Layer_1" xmlns="http://www.w3.org/2000/svg" xmlns:xlink="http://www.w3.org/1999/xlink" 
	 viewBox="0 0 56 56" xml:space="preserve">
<g>
	<path style="fill:#F8CF26;" d="M13,41.708c-1.525,0-2.878,0.879-3.549,2.185c1.472,0.368,2.732,1.275,3.549,2.506
		c0.817-1.23,2.077-2.138,3.549-2.506C15.878,42.586,14.525,41.708,13,41.708z"/>
	<circle style="fill:#F8CF26;" cx="18" cy="17.708" r="4"/>
	<path style="fill:#EE8B26;" d="M6,8h1c0.315,0,0.611,0.002,0.8,0.254L9,9.708v-1C9,8.155,9.448,8,10,8h7c0.551,0,1-0.741,1-1.292
		v-4C18,2.156,17.551,2,17,2H6C5.449,2,5,2.156,5,2.707v4C5,7.259,5.449,8,6,8z M7,4h9v2H7V4z"/>
	<circle style="fill:#F8CF26;" cx="8" cy="49.708" r="4"/>
	<path style="fill:#66CEDB;" d="M12.707,31C12.894,31.188,13,31.442,13,31.708v8c2.03,0,3.857,1.041,4.95,2.643
		c1.092-1.602,2.92-2.643,4.95-2.643c0.034,0,0.066,0.008,0.1,0.009v-8.009c0-0.379,0.214-0.725,0.553-0.895l7.855-3.927
		l6.178-6.178l-1.638-1.638l-6.297,5.398c-0.077,0.066-0.164,0.12-0.257,0.16l-7,3.146C22.269,27.826,22.135,28,22,28h-8
		c-0.234,0-0.46-0.228-0.64-0.378l-6-5.073c-0.133-0.111-0.235-0.291-0.296-0.454l-2.686-7.183L2.29,15.425l2.584,7.747L12.707,31z
		 M16,30h4v2h-1v8h-2v-8h-1V30z"/>
	<polygon style="fill:#F8CF26;" points="41.618,27 48.382,27 49.382,25 42.618,25 	"/>
	<circle style="fill:#F8CF26;" cx="18" cy="49.708" r="4"/>
	<path style="fill:#F8CF26;" d="M19.362,43.869c1.511,0.353,2.804,1.273,3.638,2.528c0.801-1.206,2.026-2.101,3.46-2.483
		c-0.667-1.319-2.027-2.208-3.56-2.208C21.384,41.708,20.038,42.576,19.362,43.869z"/>
	<path style="fill:#FFFFFF;" d="M36.707,17l3,3c0.391,0.391,0.391,1.023,0,1.414l-7,7c-0.076,0.076-0.164,0.139-0.26,0.188
		l-3.354,1.823C29.341,31.249,30.097,32,31,32h21c1.103,0,2-1.189,2-2.292v-26C54,2.604,53.103,2,52,2H31c-1.103,0-2,0.604-2,1.707
		V22.39l6.349-5.442C35.746,16.609,36.336,16.631,36.707,17z M40,5.708C40,5.155,40.448,5,41,5h10c0.552,0,1,0.155,1,0.708v4
		C52,10.26,51.552,11,51,11h-4v2.208l3.6,2.7c0.252,0.189,0.4,0.485,0.4,0.8s-0.148,0.611-0.4,0.8l-3.6,2.7V23h4
		c0.347,0,0.668,0.033,0.851,0.328c0.182,0.295,0.199,0.59,0.044,0.9l-2,4.11C49.725,28.676,49.379,29,49,29h-9
		c-0.347,0-0.669-0.326-0.851-0.62c-0.182-0.295-0.199-0.736-0.044-1.046l2-3.89C41.275,23.104,41.621,23,42,23h3v-2.793l-3.6-2.7
		c-0.252-0.188-0.4-0.485-0.4-0.8c0-0.315,0.148-0.611,0.4-0.8l3.6-2.7V11h-4c-0.552,0-1-0.74-1-1.292V5.708z M31,5h7v2h-7V5z M31,9
		h7v2h-7V9z M31,13h7v2h-7V13z"/>
	<rect x="42" y="7" style="fill:#EE8B26;" width="8" height="2"/>
	<path style="fill:#F8CF26;" d="M43,46.398c0.768-1.156,1.925-2.03,3.283-2.437c-0.658-1.344-2.032-2.253-3.584-2.253
		c-1.499,0-2.833,0.849-3.516,2.118C40.772,44.145,42.133,45.093,43,46.398z"/>
	<circle style="fill:#F8CF26;" cx="48" cy="49.708" r="4"/>
	<path style="fill:#F8CF26;" d="M33,46.398c0.784-1.181,1.976-2.065,3.372-2.46c-0.662-1.331-2.029-2.23-3.572-2.23
		c-1.507,0-2.847,0.858-3.526,2.139C30.823,44.183,32.15,45.118,33,46.398z"/>
	<circle style="fill:#F8CF26;" cx="38" cy="49.708" r="4"/>
	<circle style="fill:#F8CF26;" cx="28" cy="49.708" r="4"/>
	<polygon style="fill:#66CEDB;" points="43.666,16.708 46,18.458 48.333,16.708 46,14.958 	"/>
	<g>
		<path d="M12,17.708c0,3.309,2.691,6,6,6s6-2.691,6-6s-2.691-6-6-6S12,14.399,12,17.708z M22,17.708c0,2.206-1.794,4-4,4
			s-4-1.794-4-4s1.794-4,4-4S22,15.502,22,17.708z"/>
		<polygon points="16,32 17,32 17,40 19,40 19,32 20,32 20,30 16,30 		"/>
		<path d="M52,0H31c-2.206,0-4,1.502-4,3.707v19.769L21.795,26h-7.433l-5.518-4.745L5.936,13.43
			c-0.179-0.476-0.688-0.777-1.179-0.656l-4,0.982c-0.27,0.067-0.5,0.235-0.634,0.48s-0.16,0.529-0.072,0.793l3,8.998
			c0.049,0.147,0.132,0.28,0.242,0.389L11,32.122v7.934c-1.695,0.604-3.051,1.956-3.653,3.689C4.344,44.071,2,46.62,2,49.708
			c0,1.035,0.263,2.009,0.726,2.86L1.293,54C1.105,54.188,1,54.442,1,54.708V56h2v-0.878l0.976-0.976
			C5.042,55.113,6.451,55.708,8,55.708c2.086,0,3.924-1.071,5-2.69c1.075,1.619,2.914,2.69,5,2.69s3.924-1.071,5-2.69
			c1.075,1.619,2.914,2.69,5,2.69s3.924-1.071,5-2.69c1.075,1.619,2.914,2.69,5,2.69s3.924-1.071,5-2.69
			c1.075,1.619,2.914,2.69,5,2.69c1.549,0,2.958-0.595,4.024-1.562L53,55.122V56h2v-1.292c0-0.265-0.106-0.52-0.293-0.707
			l-1.433-1.433C53.737,51.716,54,50.742,54,49.708c0-3.191-2.506-5.801-5.652-5.982c-0.832-2.366-3.082-4.018-5.648-4.018
			c-2.03,0-3.857,1.041-4.95,2.642c-1.092-1.602-2.92-2.642-4.95-2.642s-3.857,1.041-4.95,2.643
			c-0.697-1.022-1.688-1.818-2.85-2.255v-7.769l2.289-0.998C27.878,32.804,29.316,34,31,34h21c2.206,0,4-2.087,4-4.292v-26
			C56,1.502,54.206,0,52,0z M13,41.708c1.525,0,2.878,0.879,3.549,2.185c-1.472,0.368-2.732,1.275-3.549,2.506
			c-0.817-1.23-2.077-2.138-3.549-2.506C10.122,42.586,11.475,41.708,13,41.708z M8,53.708c-2.206,0-4-1.794-4-4s1.794-4,4-4
			s4,1.794,4,4S10.206,53.708,8,53.708z M18,53.708c-2.206,0-4-1.794-4-4s1.794-4,4-4s4,1.794,4,4S20.206,53.708,18,53.708z
			 M28,53.708c-2.206,0-4-1.794-4-4s1.794-4,4-4s4,1.794,4,4S30.206,53.708,28,53.708z M38,53.708c-2.206,0-4-1.794-4-4s1.794-4,4-4
			s4,1.794,4,4S40.206,53.708,38,53.708z M52,49.708c0,2.206-1.794,4-4,4s-4-1.794-4-4s1.794-4,4-4S52,47.502,52,49.708z
			 M42.7,41.708c1.552,0,2.925,0.909,3.584,2.253c-1.359,0.407-2.516,1.281-3.283,2.437c-0.867-1.305-2.228-2.253-3.816-2.572
			C39.867,42.556,41.201,41.708,42.7,41.708z M32.8,41.708c1.543,0,2.91,0.899,3.572,2.23c-1.396,0.395-2.588,1.279-3.372,2.46
			c-0.85-1.28-2.177-2.215-3.726-2.551C29.953,42.566,31.293,41.708,32.8,41.708z M26.46,43.915c-1.434,0.382-2.66,1.277-3.46,2.483
			c-0.834-1.255-2.127-2.176-3.638-2.528c0.675-1.294,2.021-2.162,3.537-2.162C24.433,41.708,25.793,42.596,26.46,43.915z
			 M23.553,30.813C23.214,30.982,23,31.329,23,31.708v8.009c-0.034-0.001-0.066-0.009-0.1-0.009c-2.03,0-3.857,1.041-4.95,2.643
			c-1.093-1.602-2.92-2.643-4.95-2.643v-8c0-0.265-0.106-0.52-0.293-0.707l-7.833-7.833L2.29,15.416l2.087-0.522l2.686,7.165
			c0.061,0.163,0.163,0.306,0.296,0.417l6,5.146C13.54,27.772,13.766,28,14,28h8c0.135,0,0.269-0.174,0.394-0.227l7-3.073
			c0.093-0.04,0.18-0.13,0.257-0.196l6.297-5.416l1.638,1.629l-6.178,6.174L23.553,30.813z M54,29.708C54,30.811,53.103,32,52,32H31
			c-0.903,0-1.659-0.751-1.907-1.575l3.354-1.75c0.096-0.048,0.184-0.148,0.26-0.224l7-7.018c0.391-0.391,0.391-1.033,0-1.423
			l-3-3.005c-0.371-0.369-0.961-0.394-1.358-0.055L29,22.39V3.707C29,2.604,29.897,2,31,2h21c1.103,0,2,0.604,2,1.707V29.708z"/>
		<path d="M51,5H41c-0.552,0-1,0.155-1,0.708v4C40,10.26,40.448,11,41,11h4v2.208l-3.6,2.7c-0.252,0.189-0.4,0.485-0.4,0.8
			s0.148,0.611,0.4,0.8l3.6,2.7V23h-3c-0.379,0-0.725,0.068-0.895,0.406l-2,3.927c-0.155,0.31-0.138,0.788,0.044,1.083
			C39.331,28.711,39.653,29,40,29h9c0.379,0,0.725-0.36,0.894-0.699l2-4.073c0.155-0.31,0.138-0.569-0.044-0.864
			C51.668,23.07,51.347,23,51,23h-4v-2.793l3.6-2.7c0.252-0.188,0.4-0.485,0.4-0.8c0-0.315-0.148-0.611-0.4-0.8l-3.6-2.7V11h4
			c0.552,0,1-0.74,1-1.292v-4C52,5.155,51.552,5,51,5z M48.382,27h-6.764l1-2h6.764L48.382,27z M46,18.458l-2.334-1.75L46,14.958
			l2.333,1.75L46,18.458z M50,9h-8V7h8V9z"/>
		<path d="M6,10h0.5l2.7,3.454c0.192,0.256,0.491,0.327,0.8,0.327c0.105,0,0.212-0.053,0.316-0.088
			C10.725,13.557,11,13.138,11,12.708V10h6c1.654,0,3-1.638,3-3.292v-4C20,1.053,18.654,0,17,0H6C4.346,0,3,1.053,3,2.707v4
			C3,8.362,4.346,10,6,10z M5,2.707C5,2.156,5.449,2,6,2h11c0.551,0,1,0.156,1,0.707v4C18,7.259,17.551,8,17,8h-7
			C9.448,8,9,8.155,9,8.708v1L7.8,8.254C7.611,8.002,7.315,8,7,8H6C5.449,8,5,7.259,5,6.708V2.707z"/>
		<rect x="7" y="4" width="9" height="2"/>
		<rect x="31" y="5" width="7" height="2"/>
		<rect x="31" y="9" width="7" height="2"/>
		<rect x="31" y="13" width="7" height="2"/>
		<rect x="54" y="35.708" width="2" height="2"/>
		<rect x="50" y="35.708" width="2" height="2"/>
		<rect x="46" y="35.708" width="2" height="2"/>
	</g>
</g>
</svg>