<svg width="12" height="14" viewBox="0 0 12 14" fill="none" xmlns="http://www.w3.org/2000/svg">
<path d="M5.33342 2.66666C5.33342 3.84215 4.46418 4.81462 3.33341 4.97637V6.66666H7.50008C8.32848 6.66666 9.00008 5.99506 9.00008 5.16666V4.90337C8.03628 4.61652 7.33342 3.72367 7.33342 2.66666C7.33342 1.378 8.37808 0.333328 9.66675 0.333328C10.9554 0.333328 12.0001 1.378 12.0001 2.66666C12.0001 3.84215 11.1308 4.81462 10.0001 4.97637V5.16666C10.0001 6.5474 8.88081 7.66666 7.50008 7.66666H3.33341V9.0236C4.46418 9.1854 5.33342 10.1579 5.33342 11.3333C5.33342 12.622 4.28875 13.6667 3.00008 13.6667C1.71141 13.6667 0.666748 12.622 0.666748 11.3333C0.666748 10.2763 1.36959 9.38346 2.33341 9.0966V4.90337C1.36959 4.61652 0.666748 3.72367 0.666748 2.66666C0.666748 1.378 1.71141 0.333328 3.00008 0.333328C4.28875 0.333328 5.33342 1.378 5.33342 2.66666ZM3.00008 3.99999C3.73646 3.99999 4.33341 3.40304 4.33341 2.66666C4.33341 1.93028 3.73646 1.33333 3.00008 1.33333C2.2637 1.33333 1.66675 1.93028 1.66675 2.66666C1.66675 3.40304 2.2637 3.99999 3.00008 3.99999ZM9.66675 3.99999C10.4031 3.99999 11.0001 3.40304 11.0001 2.66666C11.0001 1.93028 10.4031 1.33333 9.66675 1.33333C8.93035 1.33333 8.33342 1.93028 8.33342 2.66666C8.33342 3.40304 8.93035 3.99999 9.66675 3.99999ZM4.33341 11.3333C4.33341 10.5969 3.73646 10 3.00008 10C2.2637 10 1.66675 10.5969 1.66675 11.3333C1.66675 12.0697 2.2637 12.6667 3.00008 12.6667C3.73646 12.6667 4.33341 12.0697 4.33341 11.3333Z" fill="#999999"/>
</svg>
