<svg width="16" height="16" viewBox="0 0 16 16" fill="none" xmlns="http://www.w3.org/2000/svg">
<path d="M8.5 10C9.32843 10 10 10.6716 10 11.5V12C10 13.9714 8.14049 16 5 16C1.85951 16 0 13.9714 0 12V11.5C0 10.6716 0.671573 10 1.5 10H8.5ZM8.5 11H1.5C1.22386 11 1 11.2239 1 11.5V12C1 13.4376 2.43216 15 5 15C7.56784 15 9 13.4376 9 12V11.5C9 11.2239 8.77614 11 8.5 11ZM5 3.5C6.51878 3.5 7.75 4.73122 7.75 6.25C7.75 7.76878 6.51878 9 5 9C3.48122 9 2.25 7.76878 2.25 6.25C2.25 4.73122 3.48122 3.5 5 3.5ZM14 0C15.0544 0 15.9182 0.815878 15.9945 1.85074L16 2V4C16 5.05436 15.1841 5.91817 14.1493 5.99451L14 6H12.499L11.301 7.59979C10.7716 8.30599 9.69652 8.01993 9.52431 7.22426L9.50656 7.11264L9.5008 7L9.5 5.935L9.42237 5.91532C8.69696 5.69685 8.14522 5.07753 8.02463 4.3148L8.00549 4.14926L8 4V2C8 0.945638 8.81588 0.0818349 9.85074 0.00548577L10 0H14ZM5 4.5C4.0335 4.5 3.25 5.2835 3.25 6.25C3.25 7.2165 4.0335 8 5 8C5.9665 8 6.75 7.2165 6.75 6.25C6.75 5.2835 5.9665 4.5 5 4.5ZM14 1H10C9.48716 1 9.06449 1.38604 9.00673 1.88338L9 2V4C9 4.51284 9.38604 4.93551 9.88338 4.99327L10 5H10.5008V7L12 5H14C14.5128 5 14.9355 4.61396 14.9933 4.11662L15 4V2C15 1.48716 14.614 1.06449 14.1166 1.00673L14 1Z" fill="white"/>
</svg>
